<svg width="102" height="40" viewBox="0 0 102 40" fill="none" xmlns="http://www.w3.org/2000/svg">
<rect width="102" height="40" rx="4" fill="#191D2D"/>
<path d="M49.01 25V21.29H50.746L52.706 25H54.736L52.692 21.304C52.566 21.066 52.454 20.884 52.37 20.786V20.758C53.392 20.352 54.036 19.26 54.036 18.042C54.036 16.712 53.406 15.76 52.356 15.326C51.95 15.144 51.32 15.06 50.48 15.06H47.204V25H49.01ZM49.01 16.614H50.326C50.802 16.614 51.166 16.67 51.418 16.782C51.936 16.992 52.202 17.454 52.202 18.14C52.202 19.106 51.6 19.722 50.634 19.722H49.01V16.614ZM56.0471 21.43C56.0471 22.536 56.4111 23.446 57.1531 24.132C57.8951 24.818 58.8611 25.168 60.0651 25.168C61.2551 25.168 62.2211 24.818 62.9491 24.132C63.6911 23.446 64.0551 22.536 64.0551 21.43V15.06H62.2491V21.416C62.2491 22.746 61.3951 23.516 60.0511 23.516C58.7071 23.516 57.8531 22.746 57.8531 21.416V15.06H56.0471V21.43Z" fill="#9398B2"/>
<rect x="16.25" y="12.25" width="21.9" height="15.5" rx="1.75" fill="white" stroke="#F5F5F5" stroke-width="0.5"/>
<mask id="mask0" mask-type="alpha" maskUnits="userSpaceOnUse" x="16" y="12" width="23" height="16">
<rect x="16.25" y="12.25" width="21.9" height="15.5" rx="1.75" fill="white" stroke="white" stroke-width="0.5"/>
</mask>
<g mask="url(#mask0)">
<path fill-rule="evenodd" clip-rule="evenodd" d="M16 22.6666H38.4V17.3333H16V22.6666Z" fill="#0C47B7"/>
<path fill-rule="evenodd" clip-rule="evenodd" d="M16 28H38.4V22.6667H16V28Z" fill="#E53B35"/>
</g>
<path fill-rule="evenodd" clip-rule="evenodd" d="M83.6465 17.6464L84.3536 18.3535L80 22.7071L75.6465 18.3535L76.3536 17.6464L80 21.2929L83.6465 17.6464Z" fill="#9398B2"/>
</svg>
